<svg xmlns="http://www.w3.org/2000/svg" viewBox="0 0 1514.44 857.8" xmlns:v="https://vecta.io/nano"><path stroke-width="6.27" stroke-miterlimit="10" stroke="#fff" fill="none" d="M3.13 734.72V214.6H253.8"/><path d="M61.74 275.5v525l194.26-64v-525l-194.26 64zm18.8 255.56c-3.46 0-6.27-4.2-6.27-9.4s2.8-9.4 6.27-9.4 6.26 4.2 6.26 9.4-2.8 9.4-6.26 9.4zm56.2-402.13a19.34 19.34 0 1 0 19.34 19.34 19.36 19.36 0 0 0-19.34-19.34zm0-42.93a62.17 62.17 0 0 0-44.6 18.84 5.71 5.71 0 0 0 0 8l13 13a5.68 5.68 0 0 0 7.91.12c4.34-4.13 12.4-9.88 23.66-9.88 11.1 0 19.26 5.82 23.65 10a5.67 5.67 0 0 0 7.88-.15l13-13a5.71 5.71 0 0 0 0-8A62.14 62.14 0 0 0 136.74 86zm0-86C79 0 42.46 32.46 31.16 44.06a5.55 5.55 0 0 0 .06 7.8l13.5 13.52a5.55 5.55 0 0 0 7.87 0 118 118 0 0 1 168.28 0 5.55 5.55 0 0 0 7.87 0l13.5-13.52a5.55 5.55 0 0 0 .06-7.8C231 32.46 194.43 0 136.74 0zm0 43a104.94 104.94 0 0 0-74.92 31.37 5.74 5.74 0 0 0 0 8.09L75 95.63a5.72 5.72 0 0 0 8.11 0 75.07 75.07 0 0 1 107.28 0 5.72 5.72 0 0 0 8.11 0l13.17-13.17a5.75 5.75 0 0 0 0-8.09A105 105 0 0 0 136.74 43zm217.02 656.64q-29.88-33.28-29.86-95.5v-20.7a8.57 8.57 0 0 1 8.57-8.57h58.6a8.57 8.57 0 0 1 8.57 8.57V610q0 49.77 41.5 49.75 20.37 0 31-12.07 10.63-12.07 10.56-39.15 0-32.17-14.57-56.7-14.57-24.53-53.9-58.9Q364.67 449 345 413.55q-19.67-35.45-19.66-80.1 0-60.74 30.58-94 30.58-33.26 88.85-33.3 57.5 0 87 33.3 29.5 33.3 29.5 95.48v12.65a8.57 8.57 0 0 1-8.57 8.57h-58.6a8.57 8.57 0 0 1-8.57-8.57v-17.8q0-26.34-10.2-38.42-10.2-12.08-29.85-12.07-40.06 0-40.06 49a97 97 0 0 0 14.93 51.95q14.92 24.15 54.26 58.54 50.25 43.9 69.18 79.75 18.93 35.86 18.93 84.14 0 62.94-31 96.58-31 33.64-89.94 33.66-58.17.02-88.02-33.27zM609 206.55h63.42a8.34 8.34 0 0 1 8.34 8.34v210.8l99.7-214.32a8.35 8.35 0 0 1 7.57-4.82h61.26a8.34 8.34 0 0 1 7.46 12.07l-87.9 175.92a8.35 8.35 0 0 0-.55 6l92.87 321.68a8.34 8.34 0 0 1-8 10.66H786.8a8.34 8.34 0 0 1-8-6.06l-66-232.1-31.2 64.4c-.55 1.13-.84 165.42-.84 165.42a8.34 8.34 0 0 1-8.34 8.35H609a8.34 8.34 0 0 1-8.34-8.35V214.9a8.34 8.34 0 0 1 8.34-8.34v-.01zm293.4 0h201.87a8.3 8.3 0 0 1 8.3 8.3v57.68a8.29 8.29 0 0 1-8.3 8.3H982.5a8.31 8.31 0 0 0-8.3 8.3V410a8.3 8.3 0 0 0 8.3 8.29h93.37a8.3 8.3 0 0 1 8.3 8.3v57.7a8.29 8.29 0 0 1-8.3 8.3H982.5a8.31 8.31 0 0 0-8.3 8.3V644a8.31 8.31 0 0 0 8.3 8.3h121.77a8.29 8.29 0 0 1 8.3 8.3v64.08a8.3 8.3 0 0 1-8.3 8.3H902.4a8.31 8.31 0 0 1-8.3-8.3V214.85a8.31 8.31 0 0 1 8.3-8.3zm238.08 0h60.77a8.13 8.13 0 0 1 8.1 7.42l35 392.22h1.45l37.2-392.27a8.15 8.15 0 0 1 8.11-7.37h72.57a8.15 8.15 0 0 1 8.11 7.37L1409 606.2h1.45l35-392.22a8.14 8.14 0 0 1 8.11-7.42h52.75a8.14 8.14 0 0 1 8.1 8.94l-50.1 510.1a8.14 8.14 0 0 1-8.1 7.35h-85a8.14 8.14 0 0 1-8.1-7.32l-35.66-349.7H1326l-35.67 349.7a8.14 8.14 0 0 1-8.1 7.32h-91.58a8.15 8.15 0 0 1-8.11-7.35l-50.1-510.1a8.14 8.14 0 0 1 8.05-8.94l-.01-.01zM422.68 825q0 15.47-8.8 23.7-8.8 8.22-25.43 8.22h-17.73v-62.6h19.66q15.33 0 23.82 8.1 8.5 8.1 8.48 22.6V825zm-13.8.34q0-20.18-17.82-20.18H384V846h5.7q19.2 0 19.2-20.63l-.02-.03zm87.34 7.56q0 11.7-6.16 18.3-6.16 6.6-17.18 6.6a24.07 24.07 0 0 1-12.17-3 20.12 20.12 0 0 1-8.09-8.68 29.08 29.08 0 0 1-2.83-13.19q0-11.74 6.12-18.25 6.12-6.5 17.23-6.5a24.15 24.15 0 0 1 12.16 3 20.08 20.08 0 0 1 8.1 8.61 28.92 28.92 0 0 1 2.82 13.13v-.02zm-33.1 0q0 7.1 2.34 10.75c1.55 2.43 4.1 3.64 7.6 3.64s6-1.2 7.52-3.62 2.3-6 2.3-10.77-.77-8.3-2.3-10.67-4.07-3.55-7.6-3.55-6 1.17-7.54 3.53-2.3 5.92-2.3 10.7h-.02zm105.5.01q0 11.7-6.17 18.3-6.17 6.6-17.17 6.6a24.07 24.07 0 0 1-12.17-3 20.12 20.12 0 0 1-8.1-8.7 29.08 29.08 0 0 1-2.83-13.19q0-11.74 6.12-18.25 6.12-6.5 17.22-6.5a24.16 24.16 0 0 1 12.17 3 20.08 20.08 0 0 1 8.1 8.61 28.92 28.92 0 0 1 2.83 13.15v-.02zm-33.1 0q0 7.1 2.33 10.75 2.33 3.64 7.6 3.64c3.48 0 6-1.2 7.52-3.62s2.3-6 2.3-10.77-.77-8.3-2.32-10.67-4.06-3.55-7.58-3.55-6 1.17-7.54 3.53-2.3 5.92-2.3 10.7l-.01-.01zm88.7-24.76a21.58 21.58 0 0 1 4.41.38l-1 12.26a14.79 14.79 0 0 0-3.86-.43q-6.25 0-9.74 3.2-3.5 3.2-3.5 9v24.37h-13.05v-47.9h9.9l1.92 8.05h.7a18 18 0 0 1 6-6.49 14.87 14.87 0 0 1 8.21-2.46l.01.02zm92.23 39.25a28.32 28.32 0 0 0 8.22-1.5v9.72a29.22 29.22 0 0 1-12 2.19q-7.85 0-11.42-4-3.57-4-3.56-11.8v-23.14h-6.26v-5.53l7.2-4.37 3.77-10.1h8.35v10.2h13.4v9.8h-13.4V842a5.12 5.12 0 0 0 1.56 4.11 6.22 6.22 0 0 0 4.14 1.28v.01zm79.5-14.5q0 11.7-6.17 18.3-6.17 6.6-17.18 6.6a24 24 0 0 1-12.16-3 20.14 20.14 0 0 1-8.1-8.68 29.22 29.22 0 0 1-2.83-13.19q0-11.74 6.13-18.25 6.13-6.5 17.22-6.5a24.12 24.12 0 0 1 12.16 3 20 20 0 0 1 8.1 8.61 28.79 28.79 0 0 1 2.83 13.13v-.02zm-33.1 0q0 7.1 2.33 10.75 2.33 3.64 7.6 3.64c3.5 0 6-1.2 7.52-3.62s2.3-6 2.3-10.77-.77-8.3-2.3-10.67-4.07-3.55-7.58-3.55-6 1.17-7.54 3.53-2.3 5.92-2.3 10.7h-.03zm123 14.5a28.32 28.32 0 0 0 8.23-1.5v9.72a29.31 29.31 0 0 1-12 2.19q-7.83 0-11.4-4-3.58-4-3.58-11.8v-23.14h-6.25v-5.53L868 809l3.77-10.1h8.36v10.2h13.4v9.8h-13.4V842a5.12 5.12 0 0 0 1.56 4.11 6.19 6.19 0 0 0 4.14 1.28l.02.01zm80.17 9.54h-13V829q0-10.37-7.7-10.37-5.47 0-7.92 3.73-2.45 3.73-2.44 12.08v22.53H921.8V790.3h13.07v13.58l-.3 7.45-.3 3.85h.72q4.38-7 13.88-7 8.45 0 12.8 4.54 4.36 4.54 4.37 13l-.02 31.22zm53.22.86q-11.57 0-18.08-6.4-6.5-6.4-6.5-18.07 0-12 6-18.62 6-6.62 16.64-6.57 10.15 0 15.8 5.78 5.66 5.78 5.65 16v6.34h-30.88q.2 5.57 3.3 8.7c2.06 2.08 4.94 3.12 8.66 3.12a35.92 35.92 0 0 0 8.18-.9 40.56 40.56 0 0 0 8-2.87v10.1a30.79 30.79 0 0 1-7.32 2.55 46 46 0 0 1-9.44.82l-.01.02zm-1.84-40.36a8.3 8.3 0 0 0-6.52 2.64 12.15 12.15 0 0 0-2.69 7.47h18.33q-.1-4.83-2.53-7.47a8.54 8.54 0 0 0-6.59-2.64zm117.4 1.42h-11.3v38.08h-13.06v-38.08h-7.2v-6.3l7.2-3.5v-3.5q0-8.2 4-12 4-3.8 12.9-3.77a33.56 33.56 0 0 1 12 2l-3.34 9.6a24.54 24.54 0 0 0-7.28-1.24 4.72 4.72 0 0 0-4 1.65 6.88 6.88 0 0 0-1.24 4.22v3h11.3l.02 9.84zm59.5 38.08l-1.76-6.13h-.7a13.76 13.76 0 0 1-5.95 5.17 20.39 20.39 0 0 1-8.78 1.82q-8.44 0-12.72-4.52-4.28-4.52-4.3-13v-31.23h13.07v28q0 5.2 1.84 7.78c1.23 1.72 3.18 2.6 5.87 2.6 3.65 0 6.3-1.22 7.92-3.67s2.45-6.5 2.45-12.14v-22.56h13.06v47.9l-10-.02zm61.98-9.54a28.32 28.32 0 0 0 8.22-1.5v9.72a29.22 29.22 0 0 1-12 2.19q-7.85 0-11.42-4-3.57-4-3.57-11.8v-23.14h-6.25v-5.53l7.2-4.37 3.77-10.1h8.35v10.2H1264v9.8h-13.4V842a5.12 5.12 0 0 0 1.56 4.11 6.2 6.2 0 0 0 4.11 1.28l.01.01zm69.9 9.54l-1.75-6.13h-.7a13.82 13.82 0 0 1-6 5.17 20.4 20.4 0 0 1-8.79 1.82q-8.43 0-12.72-4.52-4.3-4.52-4.28-13v-31.23H1305v28c0 3.46.62 6.05 1.84 7.78s3.2 2.6 5.87 2.6q5.5 0 7.93-3.67 2.44-3.67 2.44-12.14v-22.56h13.07v47.9l-9.97-.02zm68.54-48.8a21.58 21.58 0 0 1 4.41.38l-1 12.26a14.71 14.71 0 0 0-3.85-.43q-6.26 0-9.75 3.2-3.5 3.2-3.5 9v24.37H1368v-47.9h9.9l1.93 8.05h.64a18 18 0 0 1 6-6.49 14.85 14.85 0 0 1 8.23-2.46l.02.02zm52.85 49.65q-11.57 0-18.08-6.4-6.5-6.4-6.47-18.07 0-12 6-18.62 6-6.62 16.64-6.57 10.16 0 15.8 5.78 5.65 5.78 5.65 16v6.34h-30.9q.2 5.57 3.3 8.7c2 2.08 4.94 3.12 8.65 3.12a35.92 35.92 0 0 0 8.18-.9 40.64 40.64 0 0 0 8.06-2.87v10.1a31 31 0 0 1-7.33 2.55 46 46 0 0 1-9.51.82l.01.02zm-1.84-40.36a8.27 8.27 0 0 0-6.51 2.64 12.22 12.22 0 0 0-2.7 7.47h18.33c0-3.22-.9-5.7-2.52-7.47a8.56 8.56 0 0 0-6.6-2.64z" fill="#fff"/></svg>